<?xml version="1.0" standalone="no"?>
<!DOCTYPE svg PUBLIC "-//W3C//DTD SVG 20010904//EN"
 "http://www.w3.org/TR/2001/REC-SVG-20010904/DTD/svg10.dtd">
<svg version="1.0" xmlns="http://www.w3.org/2000/svg"
 width="1376.000000pt" height="768.000000pt" viewBox="0 0 1376.000000 768.000000"
 preserveAspectRatio="xMidYMid meet">

<g transform="translate(0.000000,768.000000) scale(0.100000,-0.100000)"
fill="#000000" stroke="none">
<path d="M11187 4895 c-85 -30 -131 -105 -125 -200 4 -71 30 -117 86 -155 40
-28 132 -38 185 -21 78 26 145 136 130 214 -26 135 -149 208 -276 162z"/>
<path d="M1761 4855 c-253 -55 -448 -191 -579 -405 -86 -139 -132 -311 -132
-490 0 -414 266 -767 655 -871 114 -30 323 -37 436 -14 156 31 294 100 412
205 54 48 147 166 147 186 0 7 -15 24 -32 37 -42 32 -229 137 -244 137 -6 0
-31 -26 -56 -58 -85 -110 -223 -178 -383 -189 -270 -18 -503 151 -570 412 -20
77 -20 243 0 320 40 153 147 290 276 354 231 113 530 57 674 -126 22 -28 46
-54 54 -57 16 -7 236 121 266 154 17 19 16 21 -14 68 -41 64 -151 169 -230
220 -77 50 -190 95 -293 116 -95 20 -298 20 -387 1z"/>
<path d="M8281 4855 c-191 -43 -313 -108 -450 -239 -363 -349 -369 -941 -12
-1295 184 -182 386 -261 670 -261 184 0 225 -16 371 -143 87 -76 203 -122 333
-133 l77 -7 0 145 0 146 -58 4 c-75 5 -124 31 -234 124 -144 120 -279 174
-439 174 -98 0 -220 17 -273 38 -174 68 -318 234 -361 415 -88 374 188 725
570 727 263 0 493 -182 560 -445 8 -32 15 -98 15 -145 0 -161 -51 -289 -162
-406 l-69 -72 79 -41 c43 -23 104 -64 134 -91 31 -28 61 -50 66 -50 6 0 30 23
55 50 227 252 294 609 176 933 -96 266 -315 469 -596 553 -74 22 -111 27 -238
30 -106 3 -169 -1 -214 -11z"/>
<path d="M2887 4833 c-91 -3 -99 -5 -108 -27 -14 -31 -37 12 489 -917 l72
-126 0 -317 c0 -389 -16 -356 169 -356 112 0 132 3 152 19 l24 19 5 329 5 328
76 135 c43 74 167 295 278 490 111 195 201 364 201 376 0 42 -22 48 -184 49
-108 0 -157 -4 -168 -12 -8 -7 -98 -168 -199 -358 -101 -190 -186 -345 -189
-345 -3 0 -84 151 -180 335 -96 184 -182 345 -191 356 -18 24 -74 29 -252 22z"/>
<path d="M4500 4834 c-8 -4 -23 -13 -32 -22 -17 -14 -18 -67 -18 -849 0 -820
0 -833 20 -853 18 -18 33 -20 149 -20 186 0 171 -30 174 325 l2 290 132 3 132
3 163 -288 c89 -158 173 -298 185 -310 21 -22 30 -23 168 -23 151 0 185 7 185
39 0 11 -56 115 -124 233 -170 295 -229 399 -225 402 2 1 26 15 53 31 74 42
168 142 205 216 44 91 61 160 61 259 0 250 -153 458 -395 536 -79 26 -85 26
-450 30 -203 2 -377 1 -385 -2z m760 -344 c148 -83 171 -291 44 -414 -57 -55
-85 -61 -309 -61 l-200 0 -3 240 c-1 132 0 246 3 253 4 11 46 13 212 10 200
-3 210 -4 253 -28z"/>
<path d="M6507 4832 c-15 -2 -34 -13 -41 -25 -8 -12 -84 -215 -169 -452 -86
-236 -213 -587 -283 -780 -164 -452 -158 -433 -139 -462 15 -22 20 -23 160
-23 184 0 177 -5 243 185 l48 140 356 3 356 2 48 -142 c28 -84 58 -152 71
-165 21 -22 30 -23 168 -23 134 0 147 2 166 21 11 11 19 28 16 37 -4 16 -384
1065 -528 1457 -38 104 -77 198 -87 208 -16 16 -39 18 -188 20 -93 1 -181 1
-197 -1z m293 -722 c61 -179 114 -333 117 -342 5 -17 -11 -18 -235 -18 l-241
0 56 158 c30 86 82 236 114 332 71 210 69 204 73 199 2 -2 55 -150 116 -329z"/>
<path d="M10611 4352 c-63 -1 -120 -7 -127 -13 -10 -8 -14 -102 -16 -387 -4
-431 -6 -440 -84 -512 -61 -56 -99 -70 -189 -70 -114 0 -173 31 -218 115 -21
39 -22 55 -27 440 -3 220 -9 406 -13 413 -11 17 -288 17 -305 0 -19 -19 -16
-820 2 -909 49 -229 228 -369 471 -369 130 0 234 36 319 111 l46 41 0 -45 c0
-72 11 -77 156 -77 69 0 134 5 145 10 18 10 19 28 19 619 0 475 -3 611 -12
618 -20 16 -46 18 -167 15z"/>
<path d="M11241 4352 c-64 -1 -121 -8 -128 -14 -10 -8 -13 -128 -13 -614 0
-534 2 -604 16 -618 21 -22 260 -23 290 -2 18 14 19 32 19 620 0 390 -4 608
-10 614 -16 15 -51 17 -174 14z"/>
<path d="M11710 4331 c-16 -31 -13 -233 4 -257 13 -18 32 -19 264 -24 l250 -5
-200 -270 c-109 -148 -233 -317 -274 -374 l-74 -103 0 -88 c0 -67 4 -92 16
-104 14 -14 72 -16 495 -16 466 0 480 1 499 20 18 18 20 33 20 133 0 98 -3
116 -18 130 -16 15 -51 17 -286 17 -221 0 -267 2 -263 14 3 7 77 110 165 229
89 118 210 283 271 367 l111 152 0 80 c0 131 54 118 -495 118 -459 0 -475 -1
-485 -19z"/>
<path d="M8289 4251 c-24 -19 -24 -19 -27 -285 l-3 -266 26 -26 c19 -18 33
-24 49 -20 24 6 409 237 439 263 17 16 23 59 9 80 -7 12 -339 216 -410 252
-50 26 -54 26 -83 2z"/>
<path d="M9440 3058 c-49 -34 -72 -83 -67 -141 17 -194 301 -181 301 13 0 55
-32 113 -74 135 -44 23 -121 19 -160 -7z"/>
</g>
</svg>
